<svg width="17" height="15" viewBox="0 0 17 15" fill="none" xmlns="http://www.w3.org/2000/svg">
<g clip-path="url(#clip0)">
<path d="M9.29032 0.93972L11.1028 4.61461L15.1579 5.20581C15.8851 5.31128 16.1766 6.2078 15.6492 6.72128L12.7154 9.58015L13.4093 13.6186C13.5342 14.3486 12.7654 14.8954 12.1214 14.554L8.49373 12.6472L4.86603 14.554C4.22209 14.8926 3.45325 14.3486 3.57815 13.6186L4.27205 9.58015L1.33825 6.72128C0.810883 6.2078 1.10232 5.31128 1.82953 5.20581L5.88467 4.61461L7.69713 0.93972C8.02188 0.28468 8.9628 0.276353 9.29032 0.93972Z" fill="#F9D66C"/>
</g>
<defs>
<clipPath id="clip0">
<rect width="15.9874" height="14.211" fill="white" transform="matrix(-1 0 0 1 16.4873 0.445801)"/>
</clipPath>
</defs>
</svg>
